# xmcd
#
# Track frame offsets:
#	150
#	14132
#	27462
#	38912
#	48745
#	61937
#	72207
#	85877
#	98760
#	111295
#	125647
#	134500
#	146102
#	163015
#
# Disc length: 2330 seconds
#
# Revision: 0
# Processed by: cddbd v1.5PL3 Copyright (c) Steve Scherf et al.
# Submitted via: dBpowerAMP V4.0
#
DISCID=d309180e
DTITLE=Gilberto and Gilmar - Os Grandes Sucessos
DYEAR=1900
DGENRE=Sertanejo
TTITLE0=Capa de Revista
TTITLE1=Só Mais Uma Vez
TTITLE2=Assino com X
TTITLE3=Amor Proibido
TTITLE4=O Abajur
TTITLE5=Da Boca Pra Fora
TTITLE6=Você Não Nasceu Pra Mim
TTITLE7=Música da Saudade
TTITLE8=Pobre de Quem Ama Na Vida
TTITLE9=Palavras da Amor
TTITLE10=Quem Ama Não Vê Defeito
TTITLE11=Cheiro de Mulher
TTITLE12=Eu Sempre Vou Lembrar de Você
TTITLE13=Fome de Amor
EXTD=
EXTT0=
EXTT1=
EXTT2=
EXTT3=
EXTT4=
EXTT5=
EXTT6=
EXTT7=
EXTT8=
EXTT9=
EXTT10=
EXTT11=
EXTT12=
EXTT13=
PLAYORDER=
